HIERARCHY
ROOT Hips
{
	OFFSET 0.00000 0.00000 0.00000
	CHANNELS 6 Xposition Yposition Zposition Zrotation Yrotation Xrotation 
	JOINT LHipJoint
	{
		OFFSET 0 0 0
		CHANNELS 3 Zrotation Yrotation Xrotation
		JOINT LeftHip
		{
			OFFSET 1.28858 -1.83292 1.03970
			CHANNELS 3 Zrotation Yrotation Xrotation
			JOINT LeftKnee
			{
				OFFSET 2.47846 -6.80952 0.00000
				CHANNELS 3 Zrotation Yrotation Xrotation
				JOINT LeftAnkle
				{
					OFFSET 2.75274 -7.56311 0.00000
					CHANNELS 3 Zrotation Yrotation Xrotation
					JOINT LeftToe
					{
						OFFSET 0.12848 -0.35301 1.68223
						CHANNELS 3 Zrotation Yrotation Xrotation
						End Site
						{
							OFFSET 0.00000 -0.00000 0.87311
						}
					}
				}
			}
		}
	}
	JOINT RHipJoint
	{
		OFFSET 0 0 0
		CHANNELS 3 Zrotation Yrotation Xrotation
		JOINT RightHip
		{
			OFFSET -1.31183 -1.83292 1.03970
			CHANNELS 3 Zrotation Yrotation Xrotation
			JOINT RightKnee
			{
				OFFSET -2.44740 -6.72417 0.00000
				CHANNELS 3 Zrotation Yrotation Xrotation
				JOINT RightAnkle
				{
					OFFSET -2.67343 -7.34519 0.00000
					CHANNELS 3 Zrotation Yrotation Xrotation
					JOINT RightToe
					{
						OFFSET -0.16914 -0.46471 1.77626
						CHANNELS 3 Zrotation Yrotation Xrotation
						End Site
						{
							OFFSET -0.00000 -0.00000 0.92777
						}
					}
				}
			}
		}
	}
	JOINT lowerback
	{
		OFFSET 0 0 0
		CHANNELS 3 Zrotation Yrotation Xrotation
		JOINT Chest
		{
			OFFSET 0.01249 2.14252 0.03842
			CHANNELS 3 Zrotation Yrotation Xrotation
			JOINT Chest2
			{
				OFFSET -0.02957 2.14199 -0.03751
				CHANNELS 3 Zrotation Yrotation Xrotation
				JOINT lowerneck
				{
					OFFSET 0 0 0
					CHANNELS 3 Zrotation Yrotation Xrotation
					JOINT Neck
					{
						OFFSET -0.01678 1.65709 -0.05476
						CHANNELS 3 Zrotation Yrotation Xrotation
						JOINT Head
						{
							OFFSET 0.07912 1.58331 -0.11843
							CHANNELS 3 Zrotation Yrotation Xrotation
							End Site
							{
								OFFSET 0.03298 1.73940 -0.04271
							}
						}
					}
				}
				JOINT LeftCollar
				{
					OFFSET 0 0 0
					CHANNELS 3 Zrotation Yrotation Xrotation
					JOINT LeftShoulder
					{
						OFFSET 3.39556 1.16496 0.08673
CHANNELS 3 Zrotation Xrotation Yrotation
						JOINT LeftElbow
						{
OFFSET 0 -5.239100 -0.000000
CHANNELS 3 Zrotation Xrotation Yrotation
							JOINT LeftWrist
							{
OFFSET 0 -3.314670 0.000000
CHANNELS 3 Zrotation Xrotation Yrotation
								JOINT lhand
								{
									OFFSET 0 0 0
CHANNELS 3 Zrotation Xrotation Yrotation
									JOINT LFingers
									{
OFFSET 0 -0.965900 0.000000
CHANNELS 3 Zrotation Xrotation Yrotation
										End Site
										{
OFFSET 0 -0.778730 0.000000
										}
									}
								}
								JOINT LThumb
								{
OFFSET 0 0.000000 0.000000
CHANNELS 3 Zrotation Xrotation Yrotation
									End Site
									{
OFFSET 0 -0.790620 0.790620
									}
								}
							}
						}
					}
				}
				JOINT RightCollar
				{
					OFFSET 0 0 0
					CHANNELS 3 Zrotation Yrotation Xrotation
					JOINT RightShoulder
					{
						OFFSET -3.27193 1.31331 0.33940
CHANNELS 3 Zrotation Xrotation Yrotation
						JOINT RightElbow
						{
OFFSET 0 -5.302520 0.000000
CHANNELS 3 Zrotation Xrotation Yrotation
							JOINT RightWrist
							{
OFFSET 0 -3.678750 0.000000
CHANNELS 3 Zrotation Xrotation Yrotation
								JOINT rhand
								{
									OFFSET 0 0 0
CHANNELS 3 Zrotation Xrotation Yrotation
									JOINT RFingers
									{
OFFSET 0 -0.594810 0.000000
CHANNELS 3 Zrotation Xrotation Yrotation
										End Site
										{
OFFSET 0 -0.479550 0.000000
										}
									}
								}
								JOINT RThumb
								{
OFFSET 0 0.000000 0.000000
CHANNELS 3 Zrotation Xrotation Yrotation
									End Site
									{
OFFSET 0 -0.486870 0.486870
									}
								}
							}
						}
					}
				}
			}
		}
	}
}
MOTION
Frames: 10
Frame Time: 0.008333333333333333
9.688977 26.997985 8.255695 -1.941454 8.569007 6.888448 0.000000 0.000000 0.000000 -10.806574 -10.072412 -36.560607 6.570596 14.959377 47.230841 -0.726883 -15.105377 2.943232 2.065639 9.001517 25.800079 0.000000 0.000000 0.000000 21.027977 12.059867 -6.380457 -1.891701 -8.635707 24.663046 -4.317270 2.297128 -38.935949 -4.603843 12.923248 -39.081718 6.912075 0.878891 3.952852 2.569967 1.354388 3.178820 -1.257108 0.772512 1.168027 -4.492269 -3.802920 -3.140878 2.759778 -5.349901 27.067146 1.260970 -2.616966 9.186071 0.000000 0.000000 0.000000 45.395125 8.710473 24.531222 150.234652 -40.691342 108.743731 62.356561 -46.852148 34.821907 0.000000 0.000000 0.000000 -7.125000 0.000000 0.000000 14.976937 -24.809428 20.368782 0.000000 0.000000 0.000000 -27.562311 10.754036 22.468076 -42.489131 -49.477344 -20.311642 -21.774671 15.968379 11.301358 0.000000 0.000000 0.000000 7.125000 0.000000 0.000000 4.814147 42.075303 0.348255
9.657365 27.006268 8.026749 -1.606569 7.867660 7.001314 0.000000 0.000000 0.000000 -12.202033 -10.216191 -35.715901 6.630842 15.012944 47.463735 -0.801429 -16.547544 0.290766 1.924180 8.706023 24.880117 0.000000 0.000000 0.000000 19.168680 11.904953 -9.398535 -2.814270 -10.384587 30.234870 -3.471395 1.357216 -34.998216 -4.209947 12.433394 -37.284810 6.023463 1.035252 4.235879 2.413281 1.553748 3.312847 -0.934857 0.859606 1.137998 -4.379719 -3.749992 -3.167872 2.615807 -5.250207 26.909541 1.200826 -2.575172 9.123462 0.000000 0.000000 0.000000 45.539962 8.527045 25.325632 149.935551 -40.948512 108.548146 63.031058 -49.239129 34.217717 0.000000 0.000000 0.000000 -7.125000 0.000000 0.000000 15.562020 -24.695387 21.192560 0.000000 0.000000 0.000000 -27.108726 11.421613 20.355338 -42.968977 -49.733800 -20.677032 -22.445980 17.119114 11.473572 0.000000 0.000000 0.000000 7.125000 0.000000 0.000000 4.240616 42.327361 0.280241
9.626657 27.048812 7.798361 -0.867935 6.908230 7.075212 0.000000 0.000000 0.000000 -14.228122 -10.144762 -34.377171 6.515047 14.909450 47.015133 -0.847884 -18.232420 -2.517541 1.648077 8.089600 22.987357 0.000000 0.000000 0.000000 16.658329 11.893489 -12.913102 -4.062094 -12.237802 36.585460 -2.434951 -1.685423 -30.147819 -3.217543 11.033991 -32.400133 4.902181 1.206823 4.492235 2.046564 1.754506 3.567001 -0.696553 0.949210 1.241467 -4.137499 -3.592443 -3.144794 2.404743 -5.006832 26.804035 1.109750 -2.460907 9.058913 0.000000 0.000000 0.000000 45.685897 7.962974 25.895784 149.250371 -41.527001 108.096404 63.314942 -50.825862 33.518472 0.000000 0.000000 0.000000 -7.125000 0.000000 0.000000 15.985903 -24.171137 21.735622 0.000000 0.000000 0.000000 -26.301790 11.829264 18.381330 -43.155232 -49.832027 -20.819346 -22.627754 17.597433 12.164262 0.000000 0.000000 0.000000 7.125000 0.000000 0.000000 4.181897 43.086003 0.197793
9.600301 27.112874 7.576386 0.036188 5.854630 7.039087 0.000000 0.000000 0.000000 -16.515714 -9.858162 -32.477719 6.201074 14.620018 45.782766 -0.807088 -19.705301 -5.541436 1.268433 7.137577 20.124017 0.000000 0.000000 0.000000 13.866908 11.948706 -16.424839 -5.401519 -13.818520 42.522595 -1.527374 -3.927798 -25.026985 -2.218054 9.302843 -26.749984 3.825931 1.331104 4.783173 1.543211 1.893161 3.838059 -0.621575 1.008063 1.343083 -3.810969 -3.354304 -3.014436 2.185093 -4.665092 26.754278 1.011837 -2.294675 8.989194 0.000000 0.000000 0.000000 45.994827 7.234972 26.196262 148.162727 -42.416336 107.368813 62.834457 -50.898981 32.743995 0.000000 0.000000 0.000000 -7.125000 0.000000 0.000000 16.043079 -22.940026 21.653058 0.000000 0.000000 0.000000 -25.195935 12.241056 16.795241 -43.386692 -49.953119 -20.996345 -22.598445 16.882998 13.079346 0.000000 0.000000 0.000000 7.125000 0.000000 0.000000 4.356230 44.061629 0.101098
9.573131 27.180211 7.351628 0.780554 4.968040 6.990296 0.000000 0.000000 0.000000 -18.528951 -9.446330 -30.487419 5.806253 14.237519 44.198328 -0.758033 -21.156223 -8.005789 1.138886 6.777180 19.056881 0.000000 0.000000 0.000000 11.346909 11.933968 -19.872343 -6.549212 -14.938154 47.144337 -1.037306 -2.825034 -20.452426 -1.766587 8.361624 -23.818183 3.020789 1.344569 5.101578 1.086100 1.894203 4.026568 -0.647141 0.999326 1.346612 -3.555690 -3.077697 -2.847560 1.978658 -4.267679 26.753803 0.935158 -2.108399 8.932750 0.000000 0.000000 0.000000 46.390958 6.490669 26.392880 146.811456 -43.473329 106.448008 61.614202 -49.627765 32.037994 0.000000 0.000000 0.000000 -7.125000 0.000000 0.000000 15.685988 -21.192635 20.895976 0.000000 0.000000 0.000000 -23.923308 12.797311 15.592777 -43.926781 -50.231506 -21.410636 -22.974235 15.301241 13.816625 0.000000 0.000000 0.000000 7.125000 0.000000 0.000000 4.137319 44.895416 0.010968
9.541376 27.243419 7.118965 1.153436 4.359004 7.058025 0.000000 0.000000 0.000000 -19.942968 -9.031083 -28.719570 5.399790 13.819676 42.521296 -0.725883 -22.627471 -9.987372 1.152404 6.815961 19.171176 0.000000 0.000000 0.000000 9.555838 11.684650 -23.423013 -7.390125 -15.650744 50.333051 -0.838254 0.363407 -17.196146 -1.681842 8.169341 -23.229674 2.611992 1.233303 5.331072 0.780291 1.738759 4.113109 -0.731678 0.916984 1.299027 -3.420716 -2.797196 -2.730567 1.800943 -3.857261 26.730002 0.888236 -1.924908 8.882501 0.000000 0.000000 0.000000 46.712564 5.713670 26.503472 145.326026 -44.576699 105.415612 60.374609 -48.030366 31.542595 0.000000 0.000000 0.000000 -7.125000 0.000000 0.000000 15.233491 -19.687095 20.034879 0.000000 0.000000 0.000000 -22.655438 13.513385 14.744250 -44.795277 -50.667446 -22.080363 -23.599510 13.530252 14.100769 0.000000 0.000000 0.000000 7.125000 0.000000 0.000000 3.608061 45.278602 -0.024773
9.510083 27.302256 6.888078 1.196654 3.954026 7.274342 0.000000 0.000000 0.000000 -20.860932 -8.729667 -27.000963 4.938294 13.312842 40.553133 -0.704304 -23.938283 -11.539333 1.230549 7.034883 19.818962 0.000000 0.000000 0.000000 8.570627 11.115412 -27.047241 -7.953301 -16.084371 52.393540 -0.737131 2.850269 -15.509153 -1.682796 8.171490 -23.236104 2.526784 1.009232 5.379768 0.625365 1.439892 4.105951 -0.832661 0.767177 1.256508 -3.360935 -2.505965 -2.724639 1.598251 -3.416810 26.741086 0.845784 -1.736564 8.867066 0.000000 0.000000 0.000000 46.790479 5.083608 26.487723 143.916569 -45.569336 104.417614 59.519844 -46.742550 31.319680 0.000000 0.000000 0.000000 -7.125000 0.000000 0.000000 14.875916 -18.801732 19.402676 0.000000 0.000000 0.000000 -21.595063 14.339115 14.244112 -45.691798 -51.102682 -22.775979 -24.060355 12.388399 14.015691 0.000000 0.000000 0.000000 7.125000 0.000000 0.000000 3.166064 45.245479 -0.019266
9.475719 27.360273 6.670825 1.221508 3.715171 7.541974 0.000000 0.000000 0.000000 -21.682022 -8.634386 -25.001514 4.392678 12.663565 38.124585 -0.686207 -24.963502 -12.697967 1.345983 7.344019 20.739143 0.000000 0.000000 0.000000 8.091041 10.150342 -30.418293 -8.227684 -16.284208 53.378741 -0.713728 4.301352 -15.087522 -1.643571 8.080424 -22.958494 2.373598 0.722896 5.311057 0.546852 1.053077 4.020272 -0.811921 0.570167 1.191776 -3.280673 -2.240333 -2.720829 1.323587 -2.998221 26.782043 0.773176 -1.563636 8.863237 0.000000 0.000000 0.000000 46.669885 4.600861 26.277828 142.618245 -46.438857 103.483566 58.979652 -45.875641 31.399387 0.000000 0.000000 0.000000 -7.125000 0.000000 0.000000 14.570917 -18.505026 18.937320 0.000000 0.000000 0.000000 -20.719399 15.326264 13.859445 -46.374953 -51.424348 -23.308846 -24.131912 12.243968 13.593138 0.000000 0.000000 0.000000 7.125000 0.000000 0.000000 3.031839 44.798055 0.015132
9.429165 27.422133 6.467686 1.261851 3.581551 7.774827 0.000000 0.000000 0.000000 -22.374591 -8.734558 -22.755006 3.832330 11.931861 35.494058 -0.687017 -25.768599 -13.462421 1.530452 7.809776 22.138247 0.000000 0.000000 0.000000 8.101708 8.984228 -33.218086 -8.170195 -16.242881 53.173076 -0.739865 5.108431 -15.329742 -1.578115 7.925568 -22.488314 2.045031 0.436482 5.199683 0.526773 0.658671 3.905106 -0.632349 0.365023 1.117880 -3.235010 -2.017614 -2.675280 1.095864 -2.647910 26.811265 0.717019 -1.421464 8.852143 0.000000 0.000000 0.000000 46.513747 4.235069 25.796065 141.411071 -47.210464 102.603229 59.174626 -45.845838 31.608627 0.000000 0.000000 0.000000 -7.125000 0.000000 0.000000 14.595668 -18.885599 19.029921 0.000000 0.000000 0.000000 -19.851275 16.574024 13.385896 -47.115624 -51.763358 -23.889277 -23.925255 12.663896 12.908352 0.000000 0.000000 0.000000 7.125000 0.000000 0.000000 3.116302 44.033223 0.074648
9.367645 27.488202 6.272904 1.263311 3.576700 7.956467 0.000000 0.000000 0.000000 -22.842213 -8.984165 -20.452105 3.323229 11.198829 32.955563 -0.695940 -26.322243 -13.919417 1.699981 8.210066 23.354553 0.000000 0.000000 0.000000 8.618942 7.813315 -35.296678 -7.809947 -15.976946 51.874041 -0.813395 5.361318 -16.078575 -1.584442 7.940749 -22.534279 1.678517 0.165345 5.003949 0.501833 0.280972 3.847324 -0.436766 0.169196 1.154822 -3.195615 -1.848447 -2.579547 1.042366 -2.414028 26.682648 0.711872 -1.317228 8.782110 0.000000 0.000000 0.000000 46.497547 3.828087 25.130980 140.262738 -47.912732 101.755747 59.837964 -46.303414 31.880645 0.000000 0.000000 0.000000 -7.125000 0.000000 0.000000 14.836251 -19.677384 19.481789 0.000000 0.000000 0.000000 -18.728299 18.064879 12.806145 -48.252862 -52.265252 -24.785801 -23.556390 12.835867 12.420079 0.000000 0.000000 0.000000 7.125000 0.000000 0.000000 3.379526 43.463638 0.128392
